<?xml version="1.0" encoding="UTF-8"?>
<svg width="512" height="512" version="1.1" viewBox="0 0 512 512" xmlns="http://www.w3.org/2000/svg">
 <g transform="translate(0 -6.0363)">
  <g fill="#4a1a0d">
   <ellipse cx="256" cy="304.07" rx="230" ry="190"/>
   <path d="m171.87 128.45-55.162 45.798-68.484 47.732c-8.0361-48.38-15.395-96.459-11.614-145.58 0.92396-8.9933 1.7618-18.312 5.4392-26.571 3.2231-7.2387 6.6549-16.462 14.118-19.125 7.1601-2.5549 15.198 2.4455 22.101 5.6299 9.9215 4.5767 18.58 11.683 26.773 18.912 24.776 21.86 66.829 73.206 66.829 73.206z" stroke-width="259.09"/>
   <path d="m340.13 129.11 55.162 45.798 68.484 47.732 11.794-82.315s1.9754-42.288-0.17989-63.267c-0.92396-8.9933-1.7618-18.312-5.4392-26.571-3.2231-7.2387-6.6549-16.462-14.118-19.125-7.1601-2.5549-15.198 2.4455-22.101 5.6299-9.9215 4.5767-18.58 11.683-26.773 18.912-24.776 21.86-66.829 73.206-66.829 73.206z" stroke-width="259.09"/>
  </g>
  <g>
   <path d="m68.623 64.406c-0.51067-0.0066-0.98184 0.06201-1.4102 0.21484-16.019 9.4349-8.5004 70.287 2.7363 127.75 18.606-21.148 42.296-38.896 69.586-52.135-7.3537-11.603-24.577-37.157-40.27-52.748-9.0713-9.0122-22.983-22.979-30.643-23.078z" fill="#323846" stroke-width="186.07"/>
   <path d="m443.38 64.406c0.51068-0.0066 0.98184 0.06201 1.4102 0.21484 16.019 9.4349 8.5004 70.287-2.7363 127.75-18.606-21.148-42.296-38.896-69.586-52.135 7.3537-11.603 24.577-37.157 40.27-52.748 9.0713-9.0122 22.983-22.979 30.643-23.078z" fill="#323846" stroke-width="186.07"/>
   <path d="m140.93 140.38c-19.171-6.3932-28.743-5.3958-51.829-5.7885 10.601 4.4118 20.314 10.4 25.103 19.971 0 0-8.5777-0.16891-13.272 0.31507-3.9885 0.41119-10.676 1.897-10.676 1.897s7.246 1.5345 10.683 2.7545c4.845 1.7197 5.8368 6.6927 5.8368 6.6927l38.993-10.428" fill="#4a1a0d"/>
   <path d="m371.07 140.38c19.171-6.3932 28.743-5.3958 51.829-5.7885-10.601 4.4118-20.314 10.4-25.103 19.971 0 0 8.5777-0.16891 13.272 0.31507 3.9885 0.41119 10.676 1.897 10.676 1.897s-7.246 1.5345-10.683 2.7545c-4.845 1.7197-5.8368 6.6927-5.8368 6.6927l-38.993-10.428" fill="#4a1a0d"/>
   <path d="m113.51 269.41c-3.1448 9.6112-2.2613 65.691 49.02 67.23 11.374 1.3133 39.806-9.3198 44.269-17.697 3.7985-17.142 0.1925-67.746-45.273-70.349-30.155 0.24815-40.519 13.641-48.017 20.816z" fill="#232833"/>
   <path d="m233.5 364.76c-3.9027 0-7.959 3.968-7.959 6.7734 0 8.3923 6.853 8.1985 11.055 11.746 5.614 4.7401 5.6373 20.196 19.404 20.196 13.346 0.12132 13.805-15.468 19.404-20.196 4.2017-3.5476 11.055-3.3538 11.055-11.746 0-2.8055-4.0562-6.7734-7.959-6.7734z" fill="#1e222a" stroke-width="174.36"/>
   <path d="m250 402.04c1.1979 16.357-6.7424 23.029-21.68 29.31-17.143 6.5099-23.445 4.4919-21.066 12.367 2.3789 7.8752 39.237-3.1378 48.746-18.936 9.5089 15.798 46.367 26.811 48.746 18.936 2.3789-7.8751-3.9232-5.8572-21.066-12.367-16.976-6.5317-21.68-12.676-21.68-29.31-4.2959 1.5238-7.704 0.84693-12 0z" fill="#1e222a"/>
   <path d="m398.49 269.41c3.1448 9.6112 2.2613 65.691-49.02 67.23-11.374 1.3133-39.806-9.3198-44.269-17.697-3.7985-17.142-0.1925-67.746 45.273-70.349 30.155 0.24815 40.519 13.641 48.017 20.816z" fill="#232833"/>
   <ellipse cx="160.2" cy="292.68" rx="39.846" ry="38.697" fill="#76c945"/>
   <path d="m162.28 263.83c-7.1748 0.30914-14.522 10.435-14.484 24.881 0.0501 18.829 6.784 29.567 14.206 29.601 10.409 0.0472 14.484-15.454 14.484-29.543 0-14.095-6.4156-25.275-14.206-24.939z" fill="#1e222a"/>
  </g>
  <path d="m158.31 277.12c-0.51799 4.9096-4.725 8.0798-9.125 8.75-5.3078 0.80844-9.7685-4.0441-9.4375-8.625 0.36107-4.9966 5.1142-8.8074 9.4375-9.25 6.8198-0.69826 9.6555 4.0972 9.125 9.125z" fill="#fff" stroke-width="164.24"/>
  <ellipse transform="scale(-1,1)" cx="-351.8" cy="292.68" rx="39.846" ry="38.697" fill="#76c945"/>
  <path d="m349.72 263.83c7.1748 0.30914 14.522 10.435 14.484 24.881-0.0501 18.829-6.784 29.567-14.206 29.601-10.409 0.0472-14.484-15.454-14.484-29.543 0-14.095 6.4156-25.275 14.206-24.939z" fill="#1e222a"/>
  <path d="m346.76 277.12c-0.51799 4.9096-4.725 8.0798-9.125 8.75-5.3078 0.80844-9.7685-4.0441-9.4375-8.625 0.36107-4.9966 5.1142-8.8074 9.4375-9.25 6.8198-0.69826 9.6555 4.0972 9.125 9.125z" fill="#fff" stroke-width="164.24"/>
 </g>
</svg>
