<svg xmlns="http://www.w3.org/2000/svg" version="1.1" width="512" height="512" viewBox="0 0 512 512"><g transform="translate(0 -6.0363)">
  <g fill="#1a1a1f">
   <ellipse cx="256" cy="304.07" rx="230" ry="190"></ellipse>
   <path d="m171.87 128.45-55.162 45.798-68.484 47.732c-8.0361-48.38-15.395-96.459-11.614-145.58 0.92396-8.9933 1.7618-18.312 5.4392-26.571 3.2231-7.2387 6.6549-16.462 14.118-19.125 7.1601-2.5549 15.198 2.4455 22.101 5.6299 9.9215 4.5767 18.58 11.683 26.773 18.912 24.776 21.86 66.829 73.206 66.829 73.206z" stroke-width="259.09"></path>
   <path d="m340.13 129.11 55.162 45.798 68.484 47.732 11.794-82.315s1.9754-42.288-0.17989-63.267c-0.92396-8.9933-1.7618-18.312-5.4392-26.571-3.2231-7.2387-6.6549-16.462-14.118-19.125-7.1601-2.5549-15.198 2.4455-22.101 5.6299-9.9215 4.5767-18.58 11.683-26.773 18.912-24.776 21.86-66.829 73.206-66.829 73.206z" stroke-width="259.09"></path>
  </g>
  <g>
   <path d="m68.623 64.406c-0.51067-0.0066-0.98184 0.06201-1.4102 0.21484-16.019 9.4349-8.5004 70.287 2.7363 127.75 18.606-21.148 42.296-38.896 69.586-52.135-7.3537-11.603-24.577-37.157-40.27-52.748-9.0713-9.0122-22.983-22.979-30.643-23.078z" fill="#3a3d45" stroke-width="186.07"></path>
   <path d="m443.38 64.406c0.51068-0.0066 0.98184 0.06201 1.4102 0.21484 16.019 9.4349 8.5004 70.287-2.7363 127.75-18.606-21.148-42.296-38.896-69.586-52.135 7.3537-11.603 24.577-37.157 40.27-52.748 9.0713-9.0122 22.983-22.979 30.643-23.078z" fill="#3a3d45" stroke-width="186.07"></path>
   <path d="m140.93 140.38c-19.171-6.3932-28.743-5.3958-51.829-5.7885 10.601 4.4118 20.314 10.4 25.103 19.971 0 0-8.5777-0.16891-13.272 0.31507-3.9885 0.41119-10.676 1.897-10.676 1.897s7.246 1.5345 10.683 2.7545c4.845 1.7197 5.8368 6.6927 5.8368 6.6927l38.993-10.428" fill="#1a1a1f"></path>
   <path d="m371.07 140.38c19.171-6.3932 28.743-5.3958 51.829-5.7885-10.601 4.4118-20.314 10.4-25.103 19.971 0 0 8.5777-0.16891 13.272 0.31507 3.9885 0.41119 10.676 1.897 10.676 1.897s-7.246 1.5345-10.683 2.7545c-4.845 1.7197-5.8368 6.6927-5.8368 6.6927l-38.993-10.428" fill="#1a1a1f"></path>
   <path d="m149.02 260.31c-13.66 0.12374-26.386 2.2734-35.874 7.7095-3.1037 9.5173 0.38521 57.924 50.299 60.62 12.272 0.80077 34.227-2.9808 41.946-9.3564 3.051-17.226-10.801-56.759-56.37-58.974z" fill="#55a64e"></path>
   <path d="m362.98 260.31c13.66 0.12374 26.386 2.2734 35.874 7.7095 3.1037 9.5173-0.38521 57.924-50.299 60.62-12.272 0.80077-34.227-2.9808-41.946-9.3564-3.051-17.226 10.801-56.759 56.37-58.974z" fill="#55a64e"></path>
   <path d="m162.82 254.66c-8.294 6.8208-14.796 17.842-15.697 31.844 0.11101 14.002 2.9845 26.46 13.045 32.729 9.6193-4.0586 13.688-19.391 13.484-32.729-0.77365-14.001-2.7617-25.022-10.831-31.844z" fill="#1a1a1a"></path>
   <path d="m349.18 254.66c8.294 6.8208 14.796 17.842 15.697 31.844-0.11101 14.002-2.9845 26.46-13.045 32.729-9.6193-4.0586-13.688-19.391-13.484-32.729 0.77365-14.001 2.7617-25.022 10.831-31.844z" fill="#1a1a1a"></path>
   <path d="m233.5 364.76c-3.9027 0-7.959 3.968-7.959 6.7734 0 8.3923 6.853 8.1985 11.055 11.746 5.614 4.7401 5.6373 20.196 19.404 20.196 13.346 0.12132 13.805-15.468 19.404-20.196 4.2017-3.5476 11.055-3.3538 11.055-11.746 0-2.8055-4.0562-6.7734-7.959-6.7734z" fill="#3a3d45" stroke-width="174.36"></path>
   <path d="m250 402.04c1.1979 16.357-6.7424 23.029-21.68 29.31-17.143 6.5099-23.445 4.4919-21.066 12.367 2.3789 7.8752 39.237-3.1378 48.746-18.936 9.5089 15.798 46.367 26.811 48.746 18.936 2.3789-7.8751-3.9232-5.8572-21.066-12.367-16.976-6.5317-21.68-12.676-21.68-29.31-4.2959 1.5238-7.704 0.84693-12 0z" fill="#3a3d45"></path>
  </g>
 </g></svg>